TITLE ""
FILE "Disc4Track43.mp3" MP3
  TRACK 01 AUDIO
    TITLE "Disc4Track43_01"
    INDEX 01 00:00:00
  TRACK 02 AUDIO
    TITLE "Disc4Track43_02"
    INDEX 01 00:03:62
  TRACK 03 AUDIO
    TITLE "Disc4Track43_03"
    INDEX 01 00:04:04
  TRACK 04 AUDIO
    TITLE "Disc4Track43_04"
    INDEX 01 00:05:25
  TRACK 05 AUDIO
    TITLE "Disc4Track43_05"
    INDEX 01 00:07:01
  TRACK 06 AUDIO
    TITLE "Disc4Track43_06"
    INDEX 01 00:08:22
  TRACK 07 AUDIO
    TITLE "Disc4Track43_07"
    INDEX 01 00:12:17
  TRACK 08 AUDIO
    TITLE "Disc4Track43_08"
    INDEX 01 00:12:49
  TRACK 09 AUDIO
    TITLE "Disc4Track43_09"
    INDEX 01 00:13:72
  TRACK 10 AUDIO
    TITLE "Disc4Track43_10"
    INDEX 01 00:14:73
  TRACK 11 AUDIO
    TITLE "Disc4Track43_11"
    INDEX 01 00:16:19
  TRACK 12 AUDIO
    TITLE "Disc4Track43_12"
    INDEX 01 00:18:06
  TRACK 13 AUDIO
    TITLE "Disc4Track43_13"
    INDEX 01 00:18:38
  TRACK 14 AUDIO
    TITLE "Disc4Track43_14"
    INDEX 01 00:20:03
  TRACK 15 AUDIO
    TITLE "Disc4Track43_15"
    INDEX 01 00:22:22
  TRACK 16 AUDIO
    TITLE "Disc4Track43_16"
    INDEX 01 00:23:62
  TRACK 17 AUDIO
    TITLE "Disc4Track43_17"
    INDEX 01 00:24:26
  TRACK 18 AUDIO
    TITLE "Disc4Track43_18"
    INDEX 01 00:25:57
  TRACK 19 AUDIO
    TITLE "Disc4Track43_19"
    INDEX 01 00:27:64
  TRACK 20 AUDIO
    TITLE "Disc4Track43_20"
    INDEX 01 00:29:16
  TRACK 21 AUDIO
    TITLE "Disc4Track43_21"
    INDEX 01 00:31:19
  TRACK 22 AUDIO
    TITLE "Disc4Track43_22"
    INDEX 01 00:31:56
  TRACK 23 AUDIO
    TITLE "Disc4Track43_23"
    INDEX 01 00:33:12
  TRACK 24 AUDIO
    TITLE "Disc4Track43_24"
    INDEX 01 00:34:74
  TRACK 25 AUDIO
    TITLE "Disc4Track43_25"
    INDEX 01 00:36:28
  TRACK 26 AUDIO
    TITLE "Disc4Track43_26"
    INDEX 01 00:38:09
  TRACK 27 AUDIO
    TITLE "Disc4Track43_27"
    INDEX 01 00:38:42
  TRACK 28 AUDIO
    TITLE "Disc4Track43_28"
    INDEX 01 00:39:71
  TRACK 29 AUDIO
    TITLE "Disc4Track43_29"
    INDEX 01 00:40:67
  TRACK 30 AUDIO
    TITLE "Disc4Track43_30"
    INDEX 01 00:42:20
  TRACK 31 AUDIO
    TITLE "Disc4Track43_31"
    INDEX 01 00:44:21
  TRACK 32 AUDIO
    TITLE "Disc4Track43_32"
    INDEX 01 00:44:53
  TRACK 33 AUDIO
    TITLE "Disc4Track43_33"
    INDEX 01 00:46:03
  TRACK 34 AUDIO
    TITLE "Disc4Track43_34"
    INDEX 01 00:46:75
  TRACK 35 AUDIO
    TITLE "Disc4Track43_35"
    INDEX 01 00:48:27
  TRACK 36 AUDIO
    TITLE "Disc4Track43_36"
    INDEX 01 00:48:66
  TRACK 37 AUDIO
    TITLE "Disc4Track43_37"
    INDEX 01 00:50:10
  TRACK 38 AUDIO
    TITLE "Disc4Track43_38"
    INDEX 01 00:52:13
  TRACK 39 AUDIO
    TITLE "Disc4Track43_39"
    INDEX 01 00:53:30
  TRACK 40 AUDIO
    TITLE "Disc4Track43_40"
    INDEX 01 00:57:22
  TRACK 41 AUDIO
    TITLE "Disc4Track43_41"
    INDEX 01 00:57:59
  TRACK 42 AUDIO
    TITLE "Disc4Track43_42"
    INDEX 01 00:59:01
  TRACK 43 AUDIO
    TITLE "Disc4Track43_43"
    INDEX 01 01:00:09
  TRACK 44 AUDIO
    TITLE "Disc4Track43_44"
    INDEX 01 01:01:28
  TRACK 45 AUDIO
    TITLE "Disc4Track43_45"
    INDEX 01 01:01:71
  TRACK 46 AUDIO
    TITLE "Disc4Track43_46"
    INDEX 01 01:03:17
  TRACK 47 AUDIO
    TITLE "Disc4Track43_47"
    INDEX 01 01:05:35
  TRACK 48 AUDIO
    TITLE "Disc4Track43_48"
    INDEX 01 01:06:56
  TRACK 49 AUDIO
    TITLE "Disc4Track43_49"
    INDEX 01 01:10:01
  TRACK 50 AUDIO
    TITLE "Disc4Track43_50"
    INDEX 01 01:10:32
  TRACK 51 AUDIO
    TITLE "Disc4Track43_51"
    INDEX 01 01:11:55
  TRACK 52 AUDIO
    TITLE "Disc4Track43_52"
    INDEX 01 01:12:72
  TRACK 53 AUDIO
    TITLE "Disc4Track43_53"
    INDEX 01 01:14:22
  TRACK 54 AUDIO
    TITLE "Disc4Track43_54"
    INDEX 01 01:14:60
  TRACK 55 AUDIO
    TITLE "Disc4Track43_55"
    INDEX 01 01:16:12
  TRACK 56 AUDIO
    TITLE "Disc4Track43_56"
    INDEX 01 01:17:58
  TRACK 57 AUDIO
    TITLE "Disc4Track43_57"
    INDEX 01 01:19:10
  TRACK 58 AUDIO
    TITLE "Disc4Track43_58"
    INDEX 01 01:19:49
  TRACK 59 AUDIO
    TITLE "Disc4Track43_59"
    INDEX 01 01:21:01
  TRACK 60 AUDIO
    TITLE "Disc4Track43_60"
    INDEX 01 01:22:22
  TRACK 61 AUDIO
    TITLE "Disc4Track43_61"
    INDEX 01 01:23:49
